<?xml version="1.0" encoding="utf-8"?>
<!-- Generator: Adobe Illustrator 25.1.0, SVG Export Plug-In . SVG Version: 6.00 Build 0)  -->
<svg version="1.1" id="Layer_1" xmlns="http://www.w3.org/2000/svg" xmlns:xlink="http://www.w3.org/1999/xlink" x="0px" y="0px"
	 viewBox="0 0 98 98" style="enable-background:new 0 0 98 98;" xml:space="preserve">
<style type="text/css">
	.st0{fill:#195916;stroke:#000000;stroke-miterlimit:10;}
	.st1{fill:#FFFFFF;}
</style>
<path class="st0" d="M12.5,0.5h73c6.6,0,12,5.4,12,12v73c0,6.6-5.4,12-12,12h-73c-6.6,0-12-5.4-12-12v-73C0.5,5.9,5.9,0.5,12.5,0.5z
	"/>
<path class="st1" d="M75.6,20.6H72c-1,0.1-1.7,0.8-1.7,1.8v8.3c0,1-1.2,1.8-1.9,0.9c-5.6-6.2-13.8-9.4-22.1-8.5
	c-3.1,0.3-6.1,1.1-8.8,2.6c-1.4,0.7-2.8,1.5-4,2.5c-0.8,0.7-0.9,1.9-0.2,2.7c0,0,0,0,0,0l2.5,2.5c0.6,0.6,1.5,0.6,2.2,0.2
	c1.5-1,3-1.8,4.6-2.5c0.7-0.2,1.6-0.4,2.4-0.7c6.9-1.3,13.9,1.1,18.5,6.4c1.5,1.7,0.4,2.7-0.8,2.7h-8.3c-1,0-1.8,0.8-1.9,1.8v3.6
	c0.1,1,0.9,1.7,1.9,1.7H76c0.8-0.1,1.4-0.7,1.4-1.5V22.4C77.4,21.4,76.6,20.6,75.6,20.6C75.6,20.6,75.6,20.6,75.6,20.6z M64.8,62.5
	c-0.7-0.7-1.7-0.7-2.4,0c-2,2-4.3,3.5-6.9,4.4c-0.7,0.2-1.5,0.4-2.4,0.7c-6.9,1.3-13.9-1.1-18.5-6.4c-1.4-1.7-0.4-2.7,0.8-2.7h8.3
	c1,0,1.8-0.8,1.8-1.8v-3.6c-0.1-1-0.8-1.7-1.8-1.7H22.2c-0.8,0-1.5,0.7-1.6,1.5v22.7c0,1,0.8,1.8,1.8,1.8h0h3.5c1,0,1.8-0.8,1.8-1.8
	l0,0v-8.3c0-1,1.2-1.7,1.9-0.9c5.6,6.2,13.8,9.4,22.1,8.5c3.1-0.3,6.1-1.1,8.8-2.6c2.5-1.2,4.7-2.9,6.7-4.8c0.7-0.6,0.7-1.7,0.1-2.4
	c0,0-0.1-0.1-0.1-0.1L64.8,62.5z"/>
</svg>
