<?xml version="1.0" encoding="UTF-8" standalone="no"?><!DOCTYPE svg PUBLIC "-//W3C//DTD SVG 1.1//EN" "http://www.w3.org/Graphics/SVG/1.1/DTD/svg11.dtd"><svg width="100%" height="100%" viewBox="0 0 15 15" version="1.1" xmlns="http://www.w3.org/2000/svg" xmlns:xlink="http://www.w3.org/1999/xlink" xml:space="preserve" xmlns:serif="http://www.serif.com/" style="fill-rule:evenodd;clip-rule:evenodd;stroke-linejoin:round;stroke-miterlimit:2;"><path d="M9.873,5.191l-0.05,0c-0.336,-0.034 -0.605,-0.134 -0.873,-0.319l-0.034,-0.034c-0.117,-0.1 -0.235,-0.05 -0.285,-0.016l-0.017,0.016c-0.319,0.235 -0.671,0.353 -1.091,0.353c-0.437,0 -0.806,-0.134 -1.142,-0.386c-0.117,-0.084 -0.201,0 -0.201,0c-0.336,0.268 -0.722,0.403 -1.158,0.403c-0.42,0 -0.789,-0.118 -1.108,-0.37c-0.017,-0.016 -0.034,-0.016 -0.051,-0.033c-0.1,-0.084 -0.201,0 -0.201,0c-0.319,0.252 -0.671,0.386 -1.074,0.403c0,0 -0.135,0 -0.135,0.151l0,3.122c0,0.067 0.034,0.218 0.235,0.252l3.895,0c0.201,-0.034 0.235,-0.185 0.235,-0.252l0,-2.216c0.017,-0.067 0.05,-0.134 0.218,-0.134l1.863,0c0.068,0.017 0.135,0.067 0.135,0.218l0,2.098c0,0.235 0.168,0.269 0.218,0.269l0.587,0c0.051,0 0.219,-0.034 0.219,-0.269l0,-3.038c-0.034,-0.168 -0.118,-0.201 -0.185,-0.218Zm-4.197,2.417l0,0.067c0,0.084 -0.05,0.218 -0.251,0.218l-1.713,0c-0.184,0 -0.235,-0.083 -0.251,-0.167l0,-1.276c0,-0.302 0.167,-0.319 0.235,-0.319l1.779,0c0.067,0 0.201,0.05 0.201,0.268l0,1.209Zm4.012,-3.257c0.454,0.118 0.857,0.034 1.192,-0.285c0.218,-0.201 0.353,-0.453 0.386,-0.738l0,-0.034c-0.033,-0.101 -0.084,-0.218 -0.117,-0.285c-0.504,-0.907 -0.991,-1.813 -1.477,-2.72c-0.068,-0.117 -0.202,-0.117 -0.252,-0.117l-6.379,0c0,0 -0.185,0 -0.252,0.117c-0.504,0.907 -0.99,1.83 -1.477,2.72c-0.034,0.067 -0.084,0.184 -0.084,0.302l0,0.033c0.033,0.286 0.168,0.537 0.386,0.739c0.369,0.336 0.806,0.42 1.293,0.252c0.268,-0.101 0.47,-0.269 0.637,-0.521c0.017,-0.016 0.034,-0.05 0.068,-0.067c0.1,-0.067 0.235,-0.05 0.319,0.067c0.084,0.135 0.184,0.252 0.319,0.336c0.352,0.269 0.755,0.319 1.175,0.185c0.268,-0.084 0.486,-0.269 0.637,-0.521c0.084,-0.134 0.286,-0.151 0.387,0l0.1,0.151c0.219,0.252 0.487,0.403 0.806,0.437c0.302,0.033 0.588,-0.034 0.856,-0.218c0.151,-0.101 0.269,-0.235 0.353,-0.37c0.1,-0.134 0.285,-0.134 0.369,0c0.168,0.269 0.386,0.437 0.688,0.521l0.067,0.016Z" style="fill:#fff;fill-rule:nonzero;"/></svg>