<svg id="Layer_1" data-name="Layer 1" xmlns="http://www.w3.org/2000/svg" viewBox="0 0 99.73 99.73"><defs><style>.cls-1{fill:#769ed9;}.cls-2{fill:#fff;}</style></defs><rect class="cls-1" width="99.73" height="99.73" rx="12"/><path class="cls-2" d="M77.9,47.2l-3.7-1.7a1.72,1.72,0,0,0-1.7,0l-11,5.3a17.74,17.74,0,0,1,5.6-.9,18,18,0,0,1,8.6,2.2l2.1-1A2.16,2.16,0,0,0,77.9,47.2ZM20.2,36.9,47,49.6a4.45,4.45,0,0,0,3.9,0L77.8,36.9a2,2,0,0,0,0-3.7L50.9,20.5a4.45,4.45,0,0,0-3.9,0L20.2,33.3A1.91,1.91,0,0,0,20.2,36.9Zm0,14L47,63.7a3.66,3.66,0,0,0,2.3.4,17.94,17.94,0,0,1,7.9-11.4l-6.2,3a4.45,4.45,0,0,1-3.9,0L25.6,45.5a1.72,1.72,0,0,0-1.7,0l-3.7,1.7A2,2,0,0,0,20.2,50.9ZM49,70.2a5.85,5.85,0,0,1-1.9-.4L25.5,59.5a1.72,1.72,0,0,0-1.7,0l-3.6,1.7a2,2,0,0,0,0,3.7L47,77.7a4.45,4.45,0,0,0,3.9,0l.6-.3A18.2,18.2,0,0,1,49,70.2Z" transform="translate(-0.14 -0.14)"/><path class="cls-2" d="M67.2,56.2A11.9,11.9,0,1,0,79.1,68.1,11.93,11.93,0,0,0,67.2,56.2Zm9.4,10.7H73.5a17.65,17.65,0,0,0-1.7-7.1A9.69,9.69,0,0,1,76.6,66.9ZM66,59.1v7.8H63.3C63.5,63.2,64.6,60.3,66,59.1Zm0,10.2v7.8c-1.3-1.1-2.5-4.1-2.7-7.8Zm2.4,7.8V69.3h2.7C70.9,73,69.7,76,68.4,77.1Zm0-10.2V59.1c1.3,1.1,2.5,4.1,2.7,7.8Zm-5.8-7.1a18.09,18.09,0,0,0-1.7,7.1H57.8A9.43,9.43,0,0,1,62.6,59.8Zm-4.8,9.5h3.1a17.65,17.65,0,0,0,1.7,7.1A9.1,9.1,0,0,1,57.8,69.3Zm14,7.1a18.09,18.09,0,0,0,1.7-7.1h3.1A9.34,9.34,0,0,1,71.8,76.4Z" transform="translate(-0.14 -0.14)"/></svg>