<?xml version="1.0" encoding="utf-8"?>
<!-- Generator: Adobe Illustrator 25.1.0, SVG Export Plug-In . SVG Version: 6.00 Build 0)  -->
<svg version="1.1" id="Layer_1" xmlns="http://www.w3.org/2000/svg" xmlns:xlink="http://www.w3.org/1999/xlink" x="0px" y="0px"
	 viewBox="0 0 52 52" style="enable-background:new 0 0 52 52;" xml:space="preserve">
<style type="text/css">
	.st0{fill:#E8C82A;}
	.st1{fill:#FFFFFF;}
</style>
<path class="st0" d="M39.9,51.9H12.1c-6.6,0-12-5.4-12-12V12.1c0-6.6,5.4-12,12-12h27.8c6.6,0,12,5.4,12,12v27.8
	C51.9,46.5,46.5,51.9,39.9,51.9z"/>
<path class="st1" d="M50,26.1c0,13.3-10.8,24.1-24,24.1S2,39.4,2,26.1S12.8,2,26,2S50,12.8,50,26.1z M17,15c-1.7,0-3,1.8-3,4
	s1.3,4,3,4s3-1.8,3-4S18.7,15,17,15z M35,15c-1.7,0-3,1.8-3,4s1.3,4,3,4s3-1.8,3-4S36.7,15,35,15z M11,29c0.6,7.6,6.2,14,14.9,14
	c8.8,0,14.5-6.4,15.1-14H11z"/>
</svg>
