<?xml version="1.0" encoding="utf-8"?>
<!-- Generator: Adobe Illustrator 26.0.1, SVG Export Plug-In . SVG Version: 6.00 Build 0)  -->
<svg version="1.1" id="Layer_1" xmlns="http://www.w3.org/2000/svg" xmlns:xlink="http://www.w3.org/1999/xlink" x="0px" y="0px"
	 viewBox="0 0 98 98" style="enable-background:new 0 0 98 98;" xml:space="preserve">
<style type="text/css">
	.st0{fill:#AF1D62;}
	.st1{fill:#FFFFFF;}
</style>
<path class="st0" d="M12.5,0.5h73c6.6,0,12,5.4,12,12v73c0,6.6-5.4,12-12,12h-73c-6.6,0-12-5.4-12-12v-73C0.5,5.9,5.9,0.5,12.5,0.5z
	"/>
<g>
	<path class="st1" d="M74.4,44L74.4,44c-0.7-3.4-2.1-6.5-3.9-9.2c1.8-2,1.8-5-0.1-6.9c-1-1-2.3-1.5-3.5-1.5s-2.5,0.5-3.4,1.4
		c-2.7-1.7-5.6-3-8.9-3.7l0,0c0-2.8-2.2-5-5-5s-5,2.2-5,5c-3.3,0.7-6.4,2-9.1,3.8l0,0c-1-1-2.3-1.5-3.5-1.5c-1.3,0-2.6,0.5-3.5,1.5
		c-2,2-2,5.1,0,7.1l0,0c-1.9,2.6-3.1,5.7-3.9,9c-2.7,0-4.9,2.3-4.9,5s2.2,5,4.9,5c0.6,3.2,1.9,6.3,3.7,8.9c-0.1,0-0.1,0.1-0.2,0.1
		c-2,2-2,5.1,0,7.1c1,1,2.3,1.5,3.5,1.5c1.3,0,2.6-0.5,3.5-1.5l0.1-0.1c2.8,1.9,5.9,3.2,9.3,3.9c0,2.8,2.2,5,5,5s5-2.2,5-5l0,0
		c3.3-0.7,6.3-2,9-3.7l0,0c1,1,2.3,1.5,3.5,1.5c1.3,0,2.6-0.5,3.5-1.5c2-2,2-5.1,0-7.1l0,0c1.8-2.7,3.1-5.8,3.8-9.1c0,0,0,0,0.1,0
		c2.8,0,5-2.2,5-5C79.4,46.2,77.1,44,74.4,44z M65.4,30c0.1-0.1,0.3-0.2,0.5-0.3c0.3-0.2,0.6-0.2,0.9-0.2c0.5,0,1,0.2,1.4,0.6
		c0.6,0.6,0.7,1.6,0.3,2.3c-0.1,0.2-0.2,0.3-0.3,0.5c-0.4,0.4-0.9,0.6-1.4,0.6s-1-0.2-1.4-0.6C64.5,32,64.5,30.8,65.4,30z
		 M47.4,23.7c0.2-0.9,1-1.6,2-1.6s1.8,0.7,2,1.6c0,0.1,0,0.3,0,0.4c0,1.1-0.9,2-2,2s-2-0.9-2-2C47.4,24,47.4,23.8,47.4,23.7z
		 M30.4,30c0.4-0.4,0.9-0.6,1.4-0.6c0.4,0,0.8,0.1,1.1,0.3c0.1,0.1,0.2,0.2,0.3,0.3c0.8,0.8,0.8,2,0,2.8c-0.4,0.4-0.9,0.6-1.4,0.6
		c-0.5,0-1-0.2-1.4-0.6c-0.1-0.1-0.2-0.2-0.3-0.3C29.6,31.7,29.6,30.7,30.4,30z M24.6,51c-0.2,0-0.3,0-0.5-0.1
		c-0.9-0.2-1.5-1-1.5-1.9s0.7-1.7,1.5-1.9c0.2,0,0.3-0.1,0.5-0.1c1.1,0,2,0.9,2,2S25.6,51,24.6,51z M32.9,67.9
		c-0.1,0.1-0.1,0.1-0.2,0.2c-0.3,0.3-0.8,0.4-1.2,0.4c-0.5,0-1-0.2-1.4-0.6s-0.6-0.9-0.6-1.4s0.2-0.9,0.4-1.2c0-0.1,0.1-0.1,0.1-0.2
		c0.4-0.4,0.9-0.6,1.4-0.6c0.5,0,1,0.2,1.4,0.6C33.7,65.9,33.7,67.1,32.9,67.9z M51.4,74.3c-0.2,0.9-1,1.6-2,1.6s-1.8-0.7-2-1.6
		c0-0.1,0-0.3,0-0.4c0-1.1,0.9-2,2-2s2,0.9,2,2C51.4,73.9,51.4,74.1,51.4,74.3z M71.4,53c-0.6,3.2-1.8,6.1-3.6,8.7
		c-0.3,0-0.5-0.1-0.8-0.1c-1.3,0-2.6,0.5-3.5,1.5c-1.2,1.2-1.6,2.8-1.4,4.4c-2.5,1.7-5.4,3-8.6,3.6c-0.9-1.3-2.4-2.1-4.1-2.1
		s-3.2,0.8-4.1,2.1c-3.3-0.6-6.3-1.9-8.9-3.8c0.2-1.5-0.3-3-1.4-4.2c-1-1-2.3-1.5-3.5-1.5c-0.2,0-0.4,0-0.6,0.1
		c-1.7-2.5-3-5.4-3.6-8.6c1.3-0.9,2.2-2.4,2.2-4.1c0-1.7-0.9-3.2-2.2-4.1c0.6-3.1,1.8-6,3.6-8.6c0.3,0,0.5,0.1,0.8,0.1
		c1.3,0,2.6-0.5,3.5-1.5c1.2-1.2,1.6-2.8,1.4-4.4c2.6-1.8,5.5-3,8.7-3.6c0.9,1.3,2.4,2.1,4.1,2.1c1.7,0,3.1-0.8,4.1-2.1
		c3,0.6,5.9,1.7,8.3,3.4c-0.3,1.6,0.1,3.3,1.4,4.5c1,1,2.3,1.5,3.5,1.5c0.3,0,0.7,0,1-0.1c1.8,2.6,3,5.5,3.6,8.7
		c-1.2,0.9-2.1,2.4-2.1,4S70.1,52,71.4,53z M74.6,51c-0.1,0-0.2,0-0.3,0c-1.1,0-2-0.9-2-2s0.9-2,2-2c0.1,0,0.2,0,0.3,0
		c0.9,0.2,1.7,1,1.7,2S75.6,50.8,74.6,51z"/>
	<path class="st1" d="M54.4,51.4c-2.1-0.9-2.5-1.8-2.5-2.6c0-0.9,0.6-1.8,1.3-2.4c1.2-1.2,1.9-2.8,1.9-4.6c0-3.5-2.1-6.5-5.9-6.5
		s-5.9,3-5.9,6.5c0,1.9,0.7,3.5,1.9,4.6c0.7,0.7,1.3,1.5,1.3,2.4s-0.3,1.7-2.5,2.6c-3.1,1.3-6,2.8-6.1,5.6c0,1.9,1.4,3.4,3.2,3.4
		h16.3c1.8,0,3.2-1.5,3.2-3.4C60.5,54.2,57.5,52.8,54.4,51.4z"/>
</g>
</svg>
