<?xml version="1.0" encoding="utf-8"?>
<!-- Generator: Adobe Illustrator 26.0.1, SVG Export Plug-In . SVG Version: 6.00 Build 0)  -->
<svg version="1.1" id="Layer_1" xmlns="http://www.w3.org/2000/svg" xmlns:xlink="http://www.w3.org/1999/xlink" x="0px" y="0px"
	 viewBox="0 0 98 98" style="enable-background:new 0 0 98 98;" xml:space="preserve">
<style type="text/css">
	.st0{fill:#0D4A54;}
	.st1{fill:#FFFFFF;}
</style>
<path class="st0" d="M12.5,0.5h73c6.6,0,12,5.4,12,12v73c0,6.6-5.4,12-12,12h-73c-6.6,0-12-5.4-12-12v-73C0.5,5.9,5.9,0.5,12.5,0.5z
	"/>
<g>
	<g>
		<path class="st1" d="M72.1,42.4c-3.2,0-6,2.2-6.7,5.2h-4.9c-0.8-5.6-5.6-10-11.5-10s-10.7,4.3-11.5,10h-4.9
			c-0.8-3-3.5-5.2-6.7-5.2c-3.8,0-7,3.1-7,7c0,3.8,3.1,7,7,7c3.2,0,6-2.2,6.7-5.2h4.9c0.8,5,4.7,8.8,9.7,9.6v4.9
			c-3,0.8-5.2,3.5-5.2,6.7c0,3.8,3.1,7,7,7s7-3.1,7-7c0-3.2-2.2-6-5.2-6.7v-4.9c5-0.7,8.9-4.6,9.7-9.6h4.9c0.8,3,3.5,5.2,6.7,5.2
			c3.8,0,7-3.1,7-7S76,42.4,72.1,42.4z M52.6,72.3c0,1.9-1.6,3.5-3.5,3.5s-3.5-1.6-3.5-3.5s1.6-3.5,3.5-3.5S52.6,70.4,52.6,72.3z"/>
		<path class="st1" d="M32.4,34.9c-0.8,0.8-0.8,2,0,2.8c0.8,0.8,2,0.8,2.8,0c7.4-7.4,19.4-7.4,26.8,0c0.4,0.4,0.9,0.6,1.4,0.6
			s1-0.2,1.4-0.6c0.8-0.8,0.8-2,0-2.8C55.9,25.9,41.3,25.9,32.4,34.9z"/>
		<path class="st1" d="M27.3,31.3c11.8-11.7,30.8-11.7,42.6,0c0.4,0.4,0.9,0.6,1.4,0.6s1-0.2,1.4-0.6c0.8-0.8,0.8-2,0-2.8
			c-13.3-13.3-34.9-13.3-48.2,0c-0.8,0.8-0.8,2,0,2.8C25.3,32.1,26.5,32.1,27.3,31.3z"/>
	</g>
</g>
</svg>
