<svg id="Layer_1" data-name="Layer 1" xmlns="http://www.w3.org/2000/svg" viewBox="0 0 98 98"><defs><style>.cls-1{fill:#5a9cdd;stroke:#000;stroke-miterlimit:10;}.cls-2{fill:#fff;}</style></defs><rect class="cls-1" x="0.5" y="0.5" width="97" height="97" rx="12"/><path class="cls-2" d="M53,52.6V77a1,1,0,0,0,1.5.9c4.8-2.7,19.4-11,19.4-11A6.14,6.14,0,0,0,77,61.6V39.7a1,1,0,0,0-1.5-.9L54,50.9A2.06,2.06,0,0,0,53,52.6Zm-2-6.8L72.6,33.7a1,1,0,0,0,0-1.7c-4.8-2.7-19.5-11.1-19.5-11.1a6.24,6.24,0,0,0-6.2,0S32.2,29.2,27.4,32a1,1,0,0,0,0,1.7L49,45.8A2.33,2.33,0,0,0,51,45.8Zm-5,5.1L24.5,38.8a1,1,0,0,0-1.5.9V61.5a6.14,6.14,0,0,0,3.1,5.3s14.6,8.3,19.4,11a1,1,0,0,0,1.5-.9V52.6A2.06,2.06,0,0,0,46,50.9Z" transform="translate(-1.5 -1.5)"/></svg>