<?xml version="1.0" encoding="utf-8"?>
<!-- Generator: Adobe Illustrator 26.0.1, SVG Export Plug-In . SVG Version: 6.00 Build 0)  -->
<svg version="1.1" id="Layer_1" xmlns="http://www.w3.org/2000/svg" xmlns:xlink="http://www.w3.org/1999/xlink" x="0px" y="0px"
	 viewBox="0 0 98 98" style="enable-background:new 0 0 98 98;" xml:space="preserve">
<style type="text/css">
	.st0{fill:#16476D;}
	.st1{fill:#FFFFFF;}
</style>
<path class="st0" d="M12.5,0.5h73c6.6,0,12,5.4,12,12v73c0,6.6-5.4,12-12,12h-73c-6.6,0-12-5.4-12-12v-73C0.5,5.9,5.9,0.5,12.5,0.5z
	"/>
<g>
	<g>
		<path class="st1" d="M70.6,53.4c-0.2,0-0.3,0-0.3,0c-2-0.2-3.6-0.8-5.2-1.9c-0.1-0.1-0.1-0.1-0.2-0.2c-0.7-0.6-1.4-0.3-1.7-0.1
			l-0.1,0.1c-1.9,1.4-4,2.1-6.5,2.1c-2.6,0-4.8-0.8-6.8-2.3c-0.7-0.5-1.2,0-1.2,0c-2,1.6-4.3,2.4-6.9,2.4c-2.5,0-4.7-0.7-6.6-2.2
			c-0.1-0.1-0.2-0.1-0.3-0.2c-0.6-0.5-1.2,0-1.2,0c-1.9,1.5-4,2.3-6.4,2.4c0,0-0.8,0-0.8,0.9v15c0,1.3,0,2.6,0,3.6
			c0,0.4,0.2,1.3,1.4,1.5H51c1.2-0.2,1.4-1.1,1.4-1.5c0-1,0-2.3,0-3.6c0-3.2,0-6.4,0-9.6c0.1-0.4,0.3-0.8,1.3-0.8c3.5,0,7,0,10.5,0
			c0.2,0,0.4,0,0.6,0c0.4,0.1,0.8,0.4,0.8,1.3c0,3.1,0,6.1,0,9.1c0,1.3,0,2.4,0,3.4c0,1.4,1,1.6,1.3,1.6h3.5c0.3,0,1.3-0.2,1.3-1.6
			c0-1,0-2.1,0-3.4V54.7C71.5,53.7,71,53.5,70.6,53.4z M45.6,67.8c0,0.1,0,0.2,0,0.4c0,0.5-0.3,1.3-1.5,1.3c-3.4,0-6.8,0-10.2,0
			c-1.1,0-1.4-0.5-1.5-1c0-0.1,0-0.3,0-0.5c0-2.3,0-4.7,0-7.1c0-1.8,1-1.9,1.4-1.9c3.5,0,7.1,0,10.6,0c0.4,0,1.2,0.3,1.2,1.6
			C45.6,63,45.6,65.4,45.6,67.8z"/>
		<path class="st1" d="M69.5,48.4c2.7,0.7,5.1,0.2,7.1-1.7c1.3-1.2,2.1-2.7,2.3-4.4c0-0.1,0-0.2,0-0.2c-0.2-0.6-0.5-1.3-0.7-1.7
			c-3-5.4-5.9-10.8-8.8-16.2c-0.4-0.7-1.2-0.7-1.5-0.7h-38c0,0-1.1,0-1.5,0.7c-3,5.4-5.9,10.9-8.8,16.2c-0.2,0.4-0.5,1.1-0.5,1.8
			c0,0.1,0,0.1,0,0.2c0.2,1.7,1,3.2,2.3,4.4c2.2,2,4.8,2.5,7.7,1.5c1.6-0.6,2.8-1.6,3.8-3.1c0.1-0.1,0.2-0.3,0.4-0.4
			c0.6-0.4,1.4-0.3,1.9,0.4c0.5,0.8,1.1,1.5,1.9,2c2.1,1.6,4.5,1.9,7,1.1c1.6-0.5,2.9-1.6,3.8-3.1c0.5-0.8,1.7-0.9,2.3,0
			c0.2,0.3,0.4,0.6,0.6,0.9c1.3,1.5,2.9,2.4,4.8,2.6c1.8,0.2,3.5-0.2,5.1-1.3c0.9-0.6,1.6-1.4,2.1-2.2c0.6-0.8,1.7-0.8,2.2,0
			c1,1.6,2.3,2.6,4.1,3.1L69.5,48.4z"/>
	</g>
</g>
</svg>
