<svg id="Layer_1" data-name="Layer 1" xmlns="http://www.w3.org/2000/svg" viewBox="0 0 99.73 99.73"><defs><style>.cls-1{fill:#54698d;}.cls-2{fill:#fff;}</style></defs><rect class="cls-1" width="99.73" height="99.73" rx="12"/><path class="cls-2" d="M62.8,71.2V79a1.11,1.11,0,0,0,1.1,1.1,1.07,1.07,0,0,0,.6-.2L79.6,67.6a1.14,1.14,0,0,0,.3-.8,1.23,1.23,0,0,0-.4-.8L64.4,53.1a.75.75,0,0,0-.5-.1,1.11,1.11,0,0,0-1.1,1.1v8.3c-9.3,2.5-16.9-5.7-16.9-5.7a1.14,1.14,0,0,0-.8-.3A1.11,1.11,0,0,0,44,57.5v.2C47.8,73.4,62.8,71.2,62.8,71.2ZM38.2,58.9l-.2-.7v-.9a7.13,7.13,0,0,1,7.1-7.1,6.88,6.88,0,0,1,5,2.1l.1.1.1.1a15.93,15.93,0,0,0,6.6,4V54A7.13,7.13,0,0,1,64,46.9a6.2,6.2,0,0,1,3.2.8l.7.3.6.5L77,55.7a11,11,0,0,0,3.2-7.8A11.18,11.18,0,0,0,69,36.7h-.6v-1A11.35,11.35,0,0,0,57.1,24.4a10.82,10.82,0,0,0-7.6,3,11.3,11.3,0,0,0-21.9,3.9A12.09,12.09,0,0,0,29.1,37a11.26,11.26,0,0,0,2.2,22.2h7.4A.69.69,0,0,1,38.2,58.9Z" transform="translate(-0.14 -0.14)"/></svg>