<?xml version="1.0" encoding="utf-8"?>
<!-- Generator: Adobe Illustrator 25.1.0, SVG Export Plug-In . SVG Version: 6.00 Build 0)  -->
<svg version="1.1" id="Layer_1" xmlns="http://www.w3.org/2000/svg" xmlns:xlink="http://www.w3.org/1999/xlink" x="0px" y="0px"
	 viewBox="0 0 98 98" style="enable-background:new 0 0 98 98;" xml:space="preserve">
<style type="text/css">
	.st0{fill:#195916;stroke:#000000;stroke-miterlimit:10;}
	.st1{fill:#FFFFFF;}
</style>
<path class="st0" d="M12.5,0.5h73c6.6,0,12,5.4,12,12v73c0,6.6-5.4,12-12,12h-73c-6.6,0-12-5.4-12-12v-73C0.5,5.9,5.9,0.5,12.5,0.5z
	"/>
<path class="st1" d="M60.8,28.4l8.9,8.9c2,1.9,2,5.1,0,7L46.5,67.4V35.6l7.2-7.2C55.6,26.4,58.9,26.4,60.8,28.4z M79,61.5V74
	c0,2.8-2.2,5-5,5H42.8l22.5-22.5H74C76.8,56.5,79,58.8,79,61.5z M19,67.8V24c0-2.8,2.2-5,5-5h12.5c2.8,0,5,2.2,5,5v43.8
	c0,6.2-5,11.2-11.2,11.2S19,74,19,67.8z M30.2,72.8c2.8,0,5-2.2,5-5s-2.2-5-5-5s-5,2.2-5,5S27.5,72.8,30.2,72.8z"/>
</svg>
