<svg id="Layer_1" data-name="Layer 1" xmlns="http://www.w3.org/2000/svg" viewBox="0 0 97.36 97.36"><defs><style>.cls-1{fill:#04844b;}.cls-2{fill:#fff;}</style></defs><rect class="cls-1" width="97.36" height="97.36" rx="12"/><path class="cls-2" d="M71.5,54.4h-.3A10.58,10.58,0,0,1,66,52.5l-.2-.2a1.35,1.35,0,0,0-1.7-.1l-.1.1a10.54,10.54,0,0,1-6.5,2.1,11,11,0,0,1-6.8-2.3.91.91,0,0,0-1.2,0,10.73,10.73,0,0,1-6.9,2.4A10.3,10.3,0,0,1,36,52.3c-.1-.1-.2-.1-.3-.2a1,1,0,0,0-1.2,0,10.76,10.76,0,0,1-6.4,2.4.82.82,0,0,0-.8.9V74a1.51,1.51,0,0,0,1.4,1.5H51.9A1.51,1.51,0,0,0,53.3,74V60.8c.1-.4.3-.8,1.3-.8H65.7c.4.1.8.4.8,1.3V73.8c0,1.4,1,1.6,1.3,1.6h3.5c.3,0,1.3-.2,1.3-1.6V55.7c-.2-1-.7-1.2-1.1-1.3Zm-25,14.4v.4A1.31,1.31,0,0,1,45,70.5H34.8c-1.1,0-1.4-.5-1.5-1V61.9c0-1.8,1-1.9,1.4-1.9H45.3c.4,0,1.2.3,1.2,1.6ZM70.4,49.4a7.43,7.43,0,0,0,9.4-6.1v-.2a14.73,14.73,0,0,0-.7-1.7c-3-5.4-5.9-10.8-8.8-16.2a1.61,1.61,0,0,0-1.5-.7h-38s-1.1,0-1.5.7c-3,5.4-5.9,10.9-8.8,16.2a4.28,4.28,0,0,0-.5,1.8v.2a7,7,0,0,0,2.3,4.4A7.24,7.24,0,0,0,30,49.3a7.65,7.65,0,0,0,3.8-3.1c.1-.1.2-.3.4-.4a1.35,1.35,0,0,1,1.9.4,6.06,6.06,0,0,0,1.9,2,7.34,7.34,0,0,0,7,1.1,6.81,6.81,0,0,0,3.8-3.1,1.36,1.36,0,0,1,2.3,0l.6.9a7.22,7.22,0,0,0,4.8,2.6,7.55,7.55,0,0,0,7.2-3.5,1.31,1.31,0,0,1,2.2,0A6.73,6.73,0,0,0,70,49.3Z" transform="translate(-1 -1)"/></svg>