<svg id="Layer_1" data-name="Layer 1" xmlns="http://www.w3.org/2000/svg" viewBox="0 0 99.73 99.73"><defs><style>.cls-1{fill:#009688;}.cls-2{fill:#fff;}</style></defs><rect class="cls-1" width="99.73" height="99.73" rx="12"/><path class="cls-2" d="M30.7,48.1a21.31,21.31,0,1,1,42.4,4.3c-1,9.2-9.7,17.9-19,18.8a20.93,20.93,0,0,1-17.9-6.8c-.6-.7-1.4-1.1-2.1-.1l-2.3,2.8c-.5.6-.1,1,.4,1.5A27.19,27.19,0,1,0,25,48.1c0,.3-.1.7-.1,1H20.5a1.45,1.45,0,0,0-1.2,2.3l7.3,8.8a1.41,1.41,0,0,0,2.2,0l7.3-8.8a1.4,1.4,0,0,0-1.2-2.3H30.6Zm21.4-10A11.9,11.9,0,1,0,64,50,12,12,0,0,0,52.1,38.1Zm9.5,10.7H58.5a17.65,17.65,0,0,0-1.7-7.1A9.51,9.51,0,0,1,61.6,48.8ZM51,41v7.8H48.3C48.4,45.1,49.6,42.2,51,41Zm0,10.2V59c-1.3-1.1-2.5-4.1-2.7-7.8ZM53.3,59V51.2H56C55.9,54.9,54.7,57.8,53.3,59Zm0-10.2V41c1.3,1.1,2.5,4.1,2.7,7.8Zm-5.7-7.1a18.09,18.09,0,0,0-1.7,7.1H42.8A9,9,0,0,1,47.6,41.7Zm-4.9,9.5h3.1a17.65,17.65,0,0,0,1.7,7.1A9.51,9.51,0,0,1,42.7,51.2Zm14,7.1a18.09,18.09,0,0,0,1.7-7.1h3.1A9,9,0,0,1,56.7,58.3Z" transform="translate(-0.14 -0.14)"/></svg>