<svg id="Layer_1" data-name="Layer 1" xmlns="http://www.w3.org/2000/svg" viewBox="0 0 98 98"><defs><style>.cls-1{fill:#47cfd2;stroke:#fff;stroke-miterlimit:10;}.cls-2{fill:#fff;}</style></defs><rect class="cls-1" x="0.5" y="0.5" width="97" height="97" rx="12"/><path class="cls-2" d="M31.9,49.7a11.48,11.48,0,0,1-1.9.1,12.75,12.75,0,0,1-1.9-.1,1,1,0,0,0-1.1,1V78a2,2,0,0,0,2,2h2a2,2,0,0,0,2-2V50.7A.93.93,0,0,0,31.9,49.7Zm20,21a11.48,11.48,0,0,1-1.9.1,12.75,12.75,0,0,1-1.9-.1,1,1,0,0,0-1.1,1V78a2,2,0,0,0,2,2h2a2,2,0,0,0,2-2V71.7A.93.93,0,0,0,51.9,70.7Zm20-15a11.48,11.48,0,0,1-1.9.1,12.75,12.75,0,0,1-1.9-.1,1,1,0,0,0-1.1,1V78a2,2,0,0,0,2,2h2a2,2,0,0,0,2-2V56.7A.93.93,0,0,0,71.9,55.7ZM33,30.7V22a2,2,0,0,0-2-2H29a2,2,0,0,0-2,2v8.7A6.87,6.87,0,0,0,23,37a7,7,0,0,0,14,0A6.87,6.87,0,0,0,33,30.7Zm20,21V22a2,2,0,0,0-2-2H49a2,2,0,0,0-2,2V51.7A6.87,6.87,0,0,0,43,58a7,7,0,0,0,14,0A6.87,6.87,0,0,0,53,51.7Zm20-15V22a2,2,0,0,0-2-2H69a2,2,0,0,0-2,2V36.7A6.87,6.87,0,0,0,63,43a7,7,0,0,0,14,0A6.87,6.87,0,0,0,73,36.7Z" transform="translate(-1.5 -1.5)"/></svg>